<svg width="69" height="69" viewBox="0 0 69 69" fill="none" xmlns="http://www.w3.org/2000/svg">
<path d="M34.5 69C53.5538 69 69 53.5538 69 34.5C69 15.4462 53.5538 0 34.5 0C15.4462 0 0 15.4462 0 34.5C0 53.5538 15.4462 69 34.5 69Z" fill="#FF993B" fill-opacity="0.07"/>
<path d="M22.5218 35.2524H44.4798L40.366 39.3662C39.1844 40.5479 40.9568 42.3202 42.1385 41.1386L45.885 37.3862L48.386 34.8813C48.8707 34.3937 48.8707 33.6062 48.386 33.1186L42.1385 26.8637C41.9008 26.6195 41.5736 26.4824 41.2327 26.4853C40.1074 26.4854 39.5552 27.856 40.366 28.6363L44.4895 32.7501H22.4571C20.7241 32.8361 20.8535 35.3387 22.5218 35.2524Z" fill="#FF993B"/>
</svg>
