<svg width="25" height="19" viewBox="0 0 25 19" fill="none" xmlns="http://www.w3.org/2000/svg">
<path fill-rule="evenodd" clip-rule="evenodd" d="M2.31402 1.18725L9.60824 8.48463C11.1991 10.0725 13.7997 10.0738 15.3919 8.48463L22.6861 1.18725C22.7596 1.11379 22.7489 0.992819 22.6636 0.933387C21.9197 0.414533 21.0145 0.106934 20.0394 0.106934H4.96076C3.98565 0.106934 3.08046 0.414586 2.33648 0.933387C2.25127 0.992819 2.24056 1.11379 2.31402 1.18725ZM0.364746 4.70289C0.364746 3.93614 0.554854 3.21167 0.889717 2.5749C0.942082 2.47529 1.07481 2.45514 1.15439 2.53472L8.35627 9.7366C10.6369 12.0205 14.3619 12.0218 16.6439 9.7366L23.8458 2.53472C23.9254 2.45514 24.0581 2.47529 24.1105 2.5749C24.4453 3.21167 24.6354 3.93619 24.6354 4.70289V14.2972C24.6354 16.8334 22.5724 18.8932 20.0394 18.8932H4.96076C2.42782 18.8932 0.364746 16.8334 0.364746 14.2972V4.70289Z" fill="#ffffff"/>
</svg>
