<svg width="59" height="67" viewBox="0 0 59 67" fill="none" xmlns="http://www.w3.org/2000/svg">
<path d="M54.8348 23.2664L48.2672 20.876C50.6418 18.9139 51.6557 15.8017 50.9288 12.8443C49.5002 7.0337 42.4156 4.82794 37.9397 8.78473L33.4051 12.7932L32.5081 6.78154C31.6211 0.862901 24.7689 -1.9846 19.9485 1.54206C17.5382 3.30539 16.256 6.34512 16.8246 9.43157L10.6326 7.17791C7.58617 6.06888 4.2049 7.64547 3.09586 10.6923L0.414556 18.0593C0.0443547 19.0764 0.568839 20.2013 1.58614 20.5714C1.99874 20.7215 31.7809 31.5613 32.2182 31.7205C30.9787 31.7205 3.83443 31.7205 2.64021 31.7205C1.55774 31.7205 0.6802 32.598 0.6802 33.6805V61.1201C0.6802 64.3623 3.31793 67 6.5601 67H22.2399H30.0799H45.7597C49.0019 67 51.6396 64.3623 51.6396 61.1201V38.7893L53.1559 39.3413C54.1683 39.7101 55.2961 39.1912 55.668 38.1699L58.3494 30.8029C59.458 27.7561 57.8816 24.3753 54.8348 23.2664ZM20.2798 63.0801H6.55997C5.47921 63.0801 4.59996 62.2009 4.59996 61.1201V35.6405H20.2798V63.0801ZM28.1197 63.0801H24.1998V35.6405H28.1197V63.0801ZM40.5358 11.7217C42.8095 9.71161 46.3989 10.8392 47.1221 13.7803C47.8932 16.9161 44.8623 19.6351 41.8287 18.5327C39.2484 17.5935 38.0392 17.1535 35.4554 16.213L40.5358 11.7217ZM22.2628 4.70598C24.7125 2.91399 28.1825 4.3681 28.6315 7.36282L29.6365 14.0949C28.9131 13.8316 23.9753 12.0342 23.2638 11.7754C20.2299 10.6705 19.6569 6.61208 22.2628 4.70598ZM23.1862 24.2616L4.76851 17.5581L6.77956 12.0329C7.14923 11.0173 8.27632 10.4921 9.29179 10.8615C11.3528 11.6116 25.2319 16.6631 25.8675 16.8945L23.1862 24.2616ZM30.5533 26.9432L26.8697 25.6024L29.5512 18.2354L33.2347 19.5762L30.5533 26.9432ZM47.7194 61.1201C47.7194 62.2009 46.8402 63.0801 45.7594 63.0801H32.0397V35.6405H42.9882L47.7196 37.3626V61.1201H47.7194ZM54.6654 29.462L52.6545 34.9872L34.2369 28.2837L36.9183 20.9167L53.4941 26.9497C54.5097 27.3194 55.0351 28.4465 54.6654 29.462Z" fill="white"/>
</svg>
