<svg width="46" height="46" viewBox="0 0 46 46" fill="none" xmlns="http://www.w3.org/2000/svg">
<g clip-path="url(#clip0_13_18)">
<path d="M3.83334 9.58333C2.77534 9.58333 1.91667 8.72467 1.91667 7.66667V5.75C1.91667 2.57983 4.49651 0 7.66667 0H9.58334C10.6413 0 11.5 0.858667 11.5 1.91667C11.5 2.97467 10.6413 3.83333 9.58334 3.83333H7.66667C6.61059 3.83333 5.75001 4.69392 5.75001 5.75V7.66667C5.75001 8.72467 4.89134 9.58333 3.83334 9.58333Z" fill="white"/>
<path d="M38.3333 9.58333C37.2753 9.58333 36.4167 8.72467 36.4167 7.66667V5.75C36.4167 4.69392 35.5561 3.83333 34.5 3.83333H32.5833C31.5253 3.83333 30.6667 2.97467 30.6667 1.91667C30.6667 0.858667 31.5253 0 32.5833 0H34.5C37.6702 0 40.25 2.57983 40.25 5.75V7.66667C40.25 8.72467 39.3913 9.58333 38.3333 9.58333Z" fill="white"/>
<path d="M24.9167 3.83333H17.25C16.192 3.83333 15.3333 2.97467 15.3333 1.91667C15.3333 0.858667 16.192 0 17.25 0H24.9167C25.9747 0 26.8333 0.858667 26.8333 1.91667C26.8333 2.97467 25.9747 3.83333 24.9167 3.83333Z" fill="white"/>
<path d="M21.0833 38.3333H17.25C16.192 38.3333 15.3333 37.4747 15.3333 36.4167C15.3333 35.3587 16.192 34.5 17.25 34.5H21.0833C22.1413 34.5 23 35.3587 23 36.4167C23 37.4747 22.1413 38.3333 21.0833 38.3333Z" fill="white"/>
<path d="M9.58334 38.3333H7.66667C4.49651 38.3333 1.91667 35.7535 1.91667 32.5833V30.6667C1.91667 29.6087 2.77534 28.75 3.83334 28.75C4.89134 28.75 5.75001 29.6087 5.75001 30.6667V32.5833C5.75001 33.6394 6.61059 34.5 7.66667 34.5H9.58334C10.6413 34.5 11.5 35.3587 11.5 36.4167C11.5 37.4747 10.6413 38.3333 9.58334 38.3333Z" fill="white"/>
<path d="M3.83334 24.9166C2.77534 24.9166 1.91667 24.058 1.91667 23V15.3333C1.91667 14.2753 2.77534 13.4166 3.83334 13.4166C4.89134 13.4166 5.75001 14.2753 5.75001 15.3333V23C5.75001 24.058 4.89134 24.9166 3.83334 24.9166Z" fill="white"/>
<path d="M38.3333 21.0833C37.2753 21.0833 36.4167 20.2246 36.4167 19.1666V15.3333C36.4167 14.2753 37.2753 13.4166 38.3333 13.4166C39.3913 13.4166 40.25 14.2753 40.25 15.3333V19.1666C40.25 20.2246 39.3913 21.0833 38.3333 21.0833Z" fill="white"/>
<path d="M45.609 35.696L27.5291 17.6161C27.2933 17.3803 26.9809 17.25 26.6455 17.25C25.9555 17.25 25.3958 17.8097 25.3958 18.4997V44.7484C25.3958 45.4384 25.9555 45.9981 26.6455 45.9981C26.9828 45.9981 27.301 45.8658 27.5444 45.6167L35.052 37.8312H44.7293C45.4193 37.8312 45.9789 37.2715 45.9789 36.5815C45.9789 36.2518 45.8448 35.9298 45.609 35.696Z" fill="white"/>
</g>
<defs>
<clipPath id="clip0_13_18">
<rect width="46" height="46" fill="white"/>
</clipPath>
</defs>
</svg>
