<svg width="53" height="53" viewBox="0 0 53 53" fill="none" xmlns="http://www.w3.org/2000/svg">
<path d="M47.8104 20.4602C47.5972 20.5036 47.3947 20.5887 47.2144 20.7104C47.0341 20.8322 46.8796 20.9882 46.7596 21.1697C46.6396 21.3512 46.5566 21.5546 46.5152 21.7682C46.4739 21.9818 46.475 22.2014 46.5185 22.4146C47.3621 26.5452 46.9071 30.8356 45.2159 34.6973C43.5247 38.5591 40.6802 41.8031 37.0725 43.9844C33.4649 46.1657 29.2707 47.1774 25.0653 46.8809C20.8599 46.5843 16.8492 44.994 13.5834 42.328C10.3175 39.662 7.95643 36.0509 6.82396 31.99C5.69148 27.9291 5.84307 23.6173 7.25794 19.6459C8.67281 15.6746 11.2817 12.2383 14.7267 9.80819C18.1717 7.37813 22.2842 6.07338 26.5 6.07289C28.5779 6.0709 30.6439 6.38742 32.6259 7.01143C33.042 7.13439 33.4897 7.08917 33.8728 6.88549C34.2559 6.68182 34.5438 6.33595 34.6745 5.92225C34.8053 5.50856 34.7685 5.06007 34.5721 4.67322C34.3756 4.28636 34.0352 3.99203 33.6241 3.85351C28.6635 2.29894 23.3295 2.41814 18.4434 4.19276C13.5572 5.96738 9.38993 9.299 6.58318 13.6746C3.77644 18.0502 2.4859 23.2271 2.9103 28.4082C3.33469 33.5893 5.45048 38.4872 8.93186 42.3477C12.4132 46.2083 17.0672 48.8173 22.177 49.7731C27.2868 50.729 32.5691 49.9786 37.2105 47.6375C41.852 45.2964 45.5951 41.4944 47.8636 36.8171C50.1321 32.1397 50.8001 26.8463 49.7648 21.7521C49.7213 21.5389 49.6363 21.3364 49.5146 21.1561C49.3928 20.9758 49.2367 20.8212 49.0552 20.7012C48.8737 20.5813 48.6704 20.4982 48.4568 20.4569C48.2432 20.4155 48.0236 20.4166 47.8104 20.4602ZM40.9204 10.0037L42.5104 8.41593V15.4583C42.5104 15.8976 42.6849 16.3188 42.9955 16.6295C43.3061 16.9401 43.7274 17.1146 44.1667 17.1146C44.6059 17.1146 45.0272 16.9401 45.3378 16.6295C45.6484 16.3188 45.8229 15.8976 45.8229 15.4583V8.41593L47.4129 10.0037C47.7269 10.2963 48.1422 10.4556 48.5712 10.448C49.0003 10.4404 49.4097 10.2666 49.7132 9.96314C50.0166 9.65968 50.1904 9.25029 50.198 8.82121C50.2056 8.39213 50.0463 7.97686 49.7538 7.66289L45.3371 3.24622C45.0263 2.9366 44.6054 2.76276 44.1667 2.76276C43.7279 2.76276 43.3071 2.9366 42.9963 3.24622L38.5796 7.66289C38.287 7.97686 38.1278 8.39213 38.1353 8.82121C38.1429 9.25029 38.3167 9.65968 38.6202 9.96314C38.9236 10.2666 39.333 10.4404 39.7621 10.448C40.1912 10.4556 40.6065 10.2963 40.9204 10.0037ZM26.4514 39.1979C26.8907 39.1979 27.312 39.0234 27.6226 38.7128C27.9332 38.4022 28.1077 37.9809 28.1077 37.5416V36.6583C29.434 36.4672 30.6527 35.8212 31.5553 34.8307C32.4579 33.8402 32.9882 32.5668 33.0555 31.2284C33.1228 29.8901 32.7229 28.5699 31.9243 27.4939C31.1257 26.4178 29.9779 25.6528 28.6774 25.3296L25.1264 24.4462C24.5842 24.3106 24.104 23.9954 23.7639 23.5518C23.4267 23.1201 23.2454 22.587 23.2493 22.0391C23.2517 21.3833 23.5137 20.7551 23.978 20.292C24.4424 19.8289 25.0713 19.5686 25.7271 19.568H27.2729C27.8832 19.5691 28.4718 19.7948 28.9264 20.2021C29.3809 20.6094 29.6696 21.1698 29.7374 21.7763C29.7555 21.9973 29.8178 22.2123 29.9205 22.4088C30.0232 22.6052 30.1644 22.779 30.3355 22.9199C30.5066 23.0608 30.7043 23.1659 30.9168 23.2289C31.1293 23.292 31.3523 23.3118 31.5726 23.2871C31.7929 23.2624 32.006 23.1938 32.1993 23.0852C32.3925 22.9766 32.562 22.8304 32.6978 22.6551C32.8335 22.4798 32.9326 22.2791 32.9893 22.0648C33.046 21.8505 33.0591 21.627 33.0278 21.4076C32.8859 20.1357 32.3257 18.9468 31.4353 18.0276C30.5448 17.1084 29.3744 16.5107 28.1077 16.3284V15.4583C28.1077 15.019 27.9332 14.5978 27.6226 14.2872C27.312 13.9766 26.8907 13.8021 26.4514 13.8021C26.0122 13.8021 25.5909 13.9766 25.2803 14.2872C24.9697 14.5978 24.7952 15.019 24.7952 15.4583V16.3416C23.4815 16.5554 22.2818 17.2158 21.3986 18.2114C20.5153 19.2071 20.0027 20.477 19.9472 21.8068C19.8916 23.1366 20.2966 24.4448 21.0937 25.5106C21.8909 26.5765 23.0313 27.3346 24.3226 27.6571L27.8736 28.5405C28.4597 28.6881 28.9718 29.0447 29.3136 29.5433C29.6553 30.0419 29.8032 30.6481 29.7294 31.248C29.6556 31.848 29.3653 32.4003 28.9129 32.8012C28.4606 33.2022 27.8774 33.4241 27.2729 33.4253H25.7271C25.1168 33.4242 24.5282 33.1985 24.0737 32.7912C23.6191 32.3839 23.3304 31.8235 23.2626 31.217C23.2445 30.996 23.1822 30.781 23.0795 30.5846C22.9768 30.3881 22.8356 30.2143 22.6645 30.0735C22.4934 29.9326 22.2957 29.8275 22.0832 29.7644C21.8707 29.7013 21.6477 29.6815 21.4274 29.7062C21.2071 29.7309 20.994 29.7996 20.8007 29.9081C20.6075 30.0167 20.438 30.1629 20.3023 30.3382C20.1665 30.5135 20.0674 30.7142 20.0107 30.9285C19.954 31.1428 19.9409 31.3663 19.9722 31.5858C20.1113 32.8422 20.6582 34.0184 21.5292 34.9345C22.4002 35.8505 23.5474 36.456 24.7952 36.6583V37.5416C24.7952 37.9809 24.9697 38.4022 25.2803 38.7128C25.5909 39.0234 26.0122 39.1979 26.4514 39.1979Z" fill="white"/>
</svg>
