<svg width="63" height="63" viewBox="0 0 63 63" fill="none" xmlns="http://www.w3.org/2000/svg">
<g clip-path="url(#clip0_13_53)">
<path d="M2.0918 11.8125C1.00504 11.8125 0.123047 10.9305 0.123047 9.84375V7.21891C0.123047 3.23671 3.35976 0 7.34196 0H9.9668C11.0536 0 11.9355 0.881996 11.9355 1.96875C11.9355 3.0555 11.0536 3.9375 9.9668 3.9375H7.34196C5.53326 3.9375 4.06055 5.41022 4.06055 7.21891V9.84375C4.06055 10.9305 3.17855 11.8125 2.0918 11.8125Z" fill="white"/>
<path d="M50.6545 11.8125C49.5677 11.8125 48.6857 10.9305 48.6857 9.84375V7.21891C48.6857 5.41022 47.213 3.9375 45.4043 3.9375H42.7795C41.6927 3.9375 40.8107 3.0555 40.8107 1.96875C40.8107 0.881996 41.6927 0 42.7795 0H45.4043C49.3865 0 52.6232 3.23671 52.6232 7.21891V9.84375C52.6232 10.9305 51.7412 11.8125 50.6545 11.8125Z" fill="white"/>
<path d="M32.2791 3.9375H20.4666C19.3799 3.9375 18.4979 3.0555 18.4979 1.96875C18.4979 0.881996 19.3799 0 20.4666 0H32.2791C33.3659 0 34.2479 0.881996 34.2479 1.96875C34.2479 3.0555 33.3659 3.9375 32.2791 3.9375Z" fill="white"/>
<path d="M27.0294 52.5002H20.4666C19.3799 52.5002 18.4979 51.6182 18.4979 50.5314C18.4979 49.4446 19.3799 48.5627 20.4666 48.5627H27.0294C28.1162 48.5627 28.9982 49.4446 28.9982 50.5314C28.9982 51.6182 28.1162 52.5002 27.0294 52.5002Z" fill="white"/>
<path d="M9.9668 52.5002H7.34196C3.35976 52.5002 0.123047 49.2634 0.123047 45.2812V42.6564C0.123047 41.5696 1.00504 40.6877 2.0918 40.6877C3.17855 40.6877 4.06055 41.5696 4.06055 42.6564V45.2812C4.06055 47.0899 5.53326 48.5627 7.34196 48.5627H9.9668C11.0536 48.5627 11.9355 49.4446 11.9355 50.5314C11.9355 51.6182 11.0536 52.5002 9.9668 52.5002Z" fill="white"/>
<path d="M2.0918 34.1248C1.00504 34.1248 0.123047 33.2429 0.123047 32.1561V20.3436C0.123047 19.2568 1.00504 18.3748 2.0918 18.3748C3.17855 18.3748 4.06055 19.2568 4.06055 20.3436V32.1561C4.06055 33.2429 3.17855 34.1248 2.0918 34.1248Z" fill="white"/>
<path d="M50.6545 28.8752C49.5677 28.8752 48.6857 27.9932 48.6857 26.9064V20.3436C48.6857 19.2568 49.5677 18.3748 50.6545 18.3748C51.7412 18.3748 52.6232 19.2568 52.6232 20.3436V26.9064C52.6232 27.9932 51.7412 28.8752 50.6545 28.8752Z" fill="white"/>
<path d="M35.9595 63C34.6521 63 33.5918 61.9368 33.5918 60.6323V24.68C33.5918 23.3731 34.655 22.3123 35.9595 22.3123C36.592 22.3123 37.1856 22.5594 37.6341 23.0054L62.3958 47.7696C62.8395 48.2108 63.0942 48.8198 63.0942 49.4471C63.0942 50.7544 62.031 51.8148 60.7265 51.8148H47.7537L37.6658 62.2757C37.2063 62.74 36.592 63 35.9595 63ZM37.5293 28.4681V56.7419L45.499 48.4786C45.8715 48.0955 46.381 47.8773 46.9164 47.8773H56.9385L37.5293 28.4681Z" fill="white"/>
</g>
<defs>
<clipPath id="clip0_13_53">
<rect width="63" height="63" fill="white"/>
</clipPath>
</defs>
</svg>
