<svg width="70" height="70" viewBox="0 0 70 70" fill="none" xmlns="http://www.w3.org/2000/svg">
<g clip-path="url(#clip0_13_29)">
<path d="M60.2737 43.0574L51.3481 49.6493C50.4777 50.2711 49.5235 50.7437 48.525 51.0634C49.0554 49.5283 48.9653 47.8829 48.2629 46.4107C47.5368 44.8886 46.2559 43.7566 44.6515 43.2217L26.8353 37.3271C21.4732 35.5394 14.26 36.3125 9.44453 40.6044H2.05078C0.918203 40.6044 0 41.5226 0 42.6552V63.163C0 64.2955 0.918203 65.2138 2.05078 65.2138H10.2539C11.3865 65.2138 12.3047 64.2955 12.3047 63.163V61.6305L28.3896 65.2857C31.3229 65.9572 34.3293 66.3097 37.1112 66.3097C37.2384 66.3097 37.3651 66.309 37.4913 66.3075C45.275 66.2163 52.7926 63.7375 59.2313 59.1387L67.4253 53.0698C70.2938 51.021 70.8561 46.9734 68.6536 44.2203C66.6129 41.6694 62.9319 41.1586 60.2737 43.0574ZM8.20312 61.1122H4.10156V44.7059H8.20312V61.1122ZM65.0413 49.7323L56.8474 55.8011C51.0943 59.9102 44.3845 62.125 37.4433 62.2062C34.8763 62.2362 32.0612 61.9186 29.3017 61.2869L12.3047 57.4245V43.5501C16.7234 39.7147 22.8237 40.3132 25.5425 41.2196L43.3588 47.1142C43.892 47.292 44.319 47.6693 44.561 48.1767C44.8031 48.684 44.8276 49.2533 44.6303 49.7796C44.2412 50.8171 43.1126 51.3554 42.0618 51.005C42.0597 51.0043 42.0578 51.004 42.0558 51.0033L29.4904 46.8601C28.4147 46.5054 27.2553 47.0899 26.9005 48.1655C26.5459 49.2412 27.1303 50.4007 28.2059 50.7553L40.8486 54.924C45.191 56.3716 50.0073 55.6473 53.7321 52.9867L62.6576 46.395C63.5437 45.7621 64.7705 45.9323 65.4508 46.7826C66.1836 47.6986 66.0033 49.0451 65.0413 49.7323Z" fill="white"/>
<path d="M55.4965 21.1762C54.4017 20.592 53.1386 20.3577 51.917 20.131C51.0021 19.9612 50.0559 19.7858 49.5208 19.5002C49.2479 19.3544 49.2479 19.3167 49.2479 19.0712C49.2479 18.9258 49.4844 18.6606 49.9367 18.4345C51.0564 17.8747 52.6355 17.9205 53.457 18.5367C54.3633 19.2163 55.6485 19.0326 56.3281 18.1266C57.0077 17.2205 56.8241 15.9351 55.918 15.2555C55.2435 14.7496 54.4475 14.3881 53.5937 14.1731V13.6709C53.5937 12.5383 52.6755 11.6201 51.543 11.6201C50.4104 11.6201 49.4922 12.5383 49.4922 13.6709V14.2346C49.0145 14.3671 48.5477 14.5433 48.1024 14.766C46.2238 15.7053 45.1463 17.2745 45.1463 19.0713C45.1463 20.866 45.9912 22.2656 47.5896 23.1187C48.6842 23.7029 49.9473 23.9372 51.1689 24.1639C52.084 24.3337 53.03 24.5091 53.5652 24.7947C53.8381 24.9404 53.8381 24.9782 53.8381 25.2236C53.8381 25.3642 53.5954 25.6347 53.1457 25.8596C52.0269 26.4191 50.4492 26.3734 49.6289 25.7582C48.7229 25.0786 47.4374 25.2625 46.7578 26.1684C46.0782 27.0745 46.2619 28.36 47.168 29.0395C47.8424 29.5453 48.6385 29.9065 49.4922 30.1214V30.624C49.4922 31.7566 50.4104 32.6748 51.543 32.6748C52.6755 32.6748 53.5937 31.7566 53.5937 30.624V30.0573C54.0702 29.925 54.5359 29.7503 54.9801 29.5281C56.8609 28.5876 57.9396 27.0188 57.9396 25.2235C57.9396 23.4288 57.0947 22.0293 55.4965 21.1762Z" fill="white"/>
<path d="M51.543 40.6044C61.7202 40.6044 70 32.3245 70 22.1473C70 11.9701 61.7202 3.69031 51.543 3.69031C41.3658 3.69031 33.0859 11.9701 33.0859 22.1473C33.0859 32.3245 41.3658 40.6044 51.543 40.6044ZM51.543 7.79187C59.4586 7.79187 65.8984 14.2317 65.8984 22.1473C65.8984 30.0629 59.4586 36.5028 51.543 36.5028C43.6274 36.5028 37.1875 30.0629 37.1875 22.1473C37.1875 14.2317 43.6274 7.79187 51.543 7.79187Z" fill="white"/>
</g>
<defs>
<clipPath id="clip0_13_29">
<rect width="70" height="70" fill="white"/>
</clipPath>
</defs>
</svg>
