<svg width="50" height="56" viewBox="0 0 50 56" fill="none" xmlns="http://www.w3.org/2000/svg">
<path d="M39.5625 24.9375C40.1095 24.9375 40.6341 24.7202 41.0209 24.3334C41.4077 23.9466 41.625 23.422 41.625 22.875V12.5625C41.625 10.9215 40.9731 9.34767 39.8127 8.18729C38.6523 7.02691 37.0785 6.37501 35.4375 6.37501H33.375C33.1253 4.64427 32.2558 3.06301 30.9281 1.925C29.6005 0.786986 27.9048 0.169591 26.1562 0.187513H15.8438C14.1129 0.194489 12.4422 0.823139 11.1361 1.9589C9.82993 3.09465 8.97538 4.6619 8.72813 6.37501H6.5625C4.92147 6.37501 3.34766 7.02691 2.18728 8.18729C1.0269 9.34767 0.375 10.9215 0.375 12.5625V47.625C0.375 49.266 1.0269 50.8399 2.18728 52.0002C3.34766 53.1606 4.92147 53.8125 6.5625 53.8125H18.9375C19.4845 53.8125 20.0091 53.5952 20.3959 53.2084C20.7827 52.8216 21 52.297 21 51.75C21 51.203 20.7827 50.6784 20.3959 50.2916C20.0091 49.9048 19.4845 49.6875 18.9375 49.6875H6.5625C6.01549 49.6875 5.49089 49.4702 5.10409 49.0834C4.7173 48.6966 4.5 48.172 4.5 47.625V12.5625C4.5 12.0155 4.7173 11.4909 5.10409 11.1041C5.49089 10.7173 6.01549 10.5 6.5625 10.5H9.34688C9.93047 11.7304 10.8502 12.7706 11.9998 13.5005C13.1494 14.2304 14.482 14.6202 15.8438 14.625H26.1562C27.518 14.6202 28.8506 14.2304 30.0002 13.5005C31.1498 12.7706 32.0695 11.7304 32.6531 10.5H35.4375C35.9845 10.5 36.5091 10.7173 36.8959 11.1041C37.2827 11.4909 37.5 12.0155 37.5 12.5625V22.875C37.5 23.422 37.7173 23.9466 38.1041 24.3334C38.4909 24.7202 39.0155 24.9375 39.5625 24.9375ZM26.1562 10.5H15.8438C15.0232 10.5 14.2363 10.1741 13.6561 9.59388C13.0759 9.01368 12.75 8.22678 12.75 7.40626C12.75 6.58575 13.0759 5.79884 13.6561 5.21865C14.2363 4.63846 15.0232 4.31251 15.8438 4.31251H26.1562C26.9768 4.31251 27.7637 4.63846 28.3439 5.21865C28.9241 5.79884 29.25 6.58575 29.25 7.40626C29.25 8.22678 28.9241 9.01368 28.3439 9.59388C27.7637 10.1741 26.9768 10.5 26.1562 10.5Z" fill="white"/>
<path d="M33.375 20.8125C33.375 20.2655 33.1577 19.7409 32.7709 19.3541C32.3841 18.9673 31.8595 18.75 31.3125 18.75H10.6875C10.1405 18.75 9.61589 18.9673 9.22909 19.3541C8.8423 19.7409 8.625 20.2655 8.625 20.8125C8.625 21.3595 8.8423 21.8841 9.22909 22.2709C9.61589 22.6577 10.1405 22.875 10.6875 22.875H31.3125C31.8595 22.875 32.3841 22.6577 32.7709 22.2709C33.1577 21.8841 33.375 21.3595 33.375 20.8125Z" fill="white"/>
<path d="M27.1875 29.0625C27.1875 28.5155 26.9702 27.9909 26.5834 27.6041C26.1966 27.2173 25.672 27 25.125 27H10.6875C10.1405 27 9.61589 27.2173 9.22909 27.6041C8.8423 27.9909 8.625 28.5155 8.625 29.0625C8.625 29.6095 8.8423 30.1341 9.22909 30.5209C9.61589 30.9077 10.1405 31.125 10.6875 31.125H25.125C25.672 31.125 26.1966 30.9077 26.5834 30.5209C26.9702 30.1341 27.1875 29.6095 27.1875 29.0625Z" fill="white"/>
<path d="M10.6875 35.25C10.1405 35.25 9.61589 35.4673 9.22909 35.8541C8.8423 36.2409 8.625 36.7655 8.625 37.3125C8.625 37.8595 8.8423 38.3841 9.22909 38.7709C9.61589 39.1577 10.1405 39.375 10.6875 39.375H18.9375C19.4845 39.375 20.0091 39.1577 20.3959 38.7709C20.7827 38.3841 21 37.8595 21 37.3125C21 36.7655 20.7827 36.2409 20.3959 35.8541C20.0091 35.4673 19.4845 35.25 18.9375 35.25H10.6875Z" fill="white"/>
<path d="M36.4688 29.0625C33.8173 29.0625 31.2253 29.8488 29.0206 31.3219C26.816 32.795 25.0977 34.8887 24.083 37.3384C23.0683 39.7881 22.8028 42.4836 23.3201 45.0842C23.8374 47.6847 25.1142 50.0735 26.9891 51.9484C28.864 53.8233 31.2528 55.1001 33.8533 55.6174C36.4539 56.1347 39.1494 55.8692 41.5991 54.8545C44.0488 53.8398 46.1425 52.1215 47.6156 49.9169C49.0887 47.7122 49.875 45.1203 49.875 42.4688C49.8696 38.9149 48.4554 35.5081 45.9424 32.9951C43.4294 30.4821 40.0226 29.068 36.4688 29.0625ZM36.4688 51.75C34.6331 51.75 32.8387 51.2057 31.3124 50.1858C29.7861 49.166 28.5965 47.7165 27.894 46.0205C27.1915 44.3246 27.0077 42.4585 27.3658 40.6581C27.724 38.8577 28.6079 37.2039 29.9059 35.9059C31.2039 34.6079 32.8577 33.724 34.6581 33.3658C36.4585 33.0077 38.3246 33.1915 40.0205 33.894C41.7165 34.5965 43.166 35.7861 44.1858 37.3124C45.2057 38.8387 45.75 40.6331 45.75 42.4688C45.7446 44.9286 44.765 47.2862 43.0256 49.0256C41.2862 50.765 38.9286 51.7446 36.4688 51.75Z" fill="white"/>
<path d="M39.5625 37.9106L34.8394 42.6544L33.21 41.0044C32.8216 40.616 32.2949 40.3978 31.7456 40.3978C31.1964 40.3978 30.6696 40.616 30.2812 41.0044C29.8929 41.3928 29.6747 41.9195 29.6747 42.4688C29.6747 43.018 29.8929 43.5448 30.2812 43.9331L33.375 47.0269C33.5667 47.2202 33.7949 47.3736 34.0462 47.4784C34.2975 47.5831 34.5671 47.637 34.8394 47.637C35.1116 47.637 35.3812 47.5831 35.6326 47.4784C35.8839 47.3736 36.112 47.2202 36.3037 47.0269L42.4912 40.8394C42.8796 40.451 43.0978 39.9243 43.0978 39.375C43.0978 38.8258 42.8796 38.299 42.4912 37.9106C42.1029 37.5223 41.5761 37.3041 41.0269 37.3041C40.4776 37.3041 39.9509 37.5223 39.5625 37.9106Z" fill="white"/>
</svg>
