<svg width="20" height="24" viewBox="0 0 20 24" fill="none" xmlns="http://www.w3.org/2000/svg">
<path d="M14.8748 10.9166H5.12484C4.98256 10.9166 4.84167 10.8886 4.71022 10.8342C4.57877 10.7798 4.45933 10.7 4.35872 10.5994C4.25812 10.4988 4.17832 10.3793 4.12389 10.2479C4.06946 10.1164 4.04147 9.97553 4.0415 9.83325V6.04158C4.0415 4.46134 4.66925 2.94581 5.78666 1.82841C6.90406 0.711003 8.41959 0.083252 9.99984 0.083252C11.5801 0.083252 13.0956 0.711003 14.213 1.82841C15.3304 2.94581 15.9582 4.46134 15.9582 6.04158V9.83325C15.9582 9.97553 15.9302 10.1164 15.8758 10.2479C15.8214 10.3793 15.7416 10.4988 15.641 10.5994C15.5403 10.7 15.4209 10.7798 15.2895 10.8342C15.158 10.8886 15.0171 10.9166 14.8748 10.9166ZM6.20817 8.74992H13.7915V6.04158C13.7915 5.03597 13.392 4.07155 12.681 3.36047C11.9699 2.6494 11.0054 2.24992 9.99984 2.24992C8.99423 2.24992 8.0298 2.6494 7.31872 3.36047C6.60765 4.07155 6.20817 5.03597 6.20817 6.04158V8.74992Z" fill="#8593B8"/>
<path d="M15.4167 8.75H4.58333C3.43444 8.75122 2.33295 9.20816 1.52056 10.0206C0.708164 10.8329 0.251224 11.9344 0.25 13.0833V19.5833C0.251224 20.7322 0.708164 21.8337 1.52056 22.6461C2.33295 23.4585 3.43444 23.9154 4.58333 23.9167H15.4167C16.5656 23.9154 17.6671 23.4585 18.4794 22.6461C19.2918 21.8337 19.7488 20.7322 19.75 19.5833V13.0833C19.7488 11.9344 19.2918 10.8329 18.4794 10.0206C17.6671 9.20816 16.5656 8.75122 15.4167 8.75ZM10 17.4167C9.57147 17.4167 9.15257 17.2896 8.79626 17.0515C8.43996 16.8134 8.16225 16.4751 7.99826 16.0791C7.83427 15.6832 7.79136 15.2476 7.87497 14.8273C7.95857 14.407 8.16492 14.0209 8.46794 13.7179C8.77095 13.4149 9.15701 13.2086 9.5773 13.125C9.9976 13.0414 10.4332 13.0843 10.8291 13.2483C11.2251 13.4123 11.5634 13.69 11.8015 14.0463C12.0396 14.4026 12.1667 14.8215 12.1667 15.25C12.1666 15.8246 11.9384 16.3757 11.532 16.782C11.1257 17.1884 10.5746 17.4166 10 17.4167Z" fill="#8593B8"/>
</svg>
